<mxfile host="app.diagrams.net" agent="Mozilla/5.0 (X11; Linux x86_64) AppleWebKit/537.36 (KHTML, like Gecko) Chrome/130.0.0.0 Safari/537.36" version="24.8.3">
  <diagram name="Page-1" id="4BYB38cGHiEh9kVLM3_Z">
    <mxGraphModel dx="1348" dy="837" grid="1" gridSize="10" guides="1" tooltips="1" connect="1" arrows="1" fold="1" page="1" pageScale="1" pageWidth="850" pageHeight="1100" math="0" shadow="0">
      <root>
        <mxCell id="0" />
        <mxCell id="1" parent="0" />
        <mxCell id="nrf_K-8Qscz_3O5aYUuR-1" value="Perform service X" style="edgeStyle=orthogonalEdgeStyle;rounded=0;orthogonalLoop=1;jettySize=auto;html=1;exitX=1;exitY=0.25;exitDx=0;exitDy=0;entryX=0;entryY=0.25;entryDx=0;entryDy=0;" edge="1" parent="1" source="nrf_K-8Qscz_3O5aYUuR-2" target="nrf_K-8Qscz_3O5aYUuR-4">
          <mxGeometry relative="1" as="geometry" />
        </mxCell>
        <mxCell id="nrf_K-8Qscz_3O5aYUuR-2" value="&lt;b&gt;Requestor&lt;/b&gt;" style="rounded=1;whiteSpace=wrap;html=1;fillColor=#d5e8d4;strokeColor=#82b366;" vertex="1" parent="1">
          <mxGeometry x="181" y="110" width="140" height="120" as="geometry" />
        </mxCell>
        <mxCell id="nrf_K-8Qscz_3O5aYUuR-3" value="Here&#39;s the outcome" style="edgeStyle=orthogonalEdgeStyle;rounded=0;orthogonalLoop=1;jettySize=auto;html=1;exitX=0;exitY=0.75;exitDx=0;exitDy=0;entryX=1;entryY=0.75;entryDx=0;entryDy=0;dashed=1;" edge="1" parent="1" source="nrf_K-8Qscz_3O5aYUuR-4" target="nrf_K-8Qscz_3O5aYUuR-2">
          <mxGeometry relative="1" as="geometry" />
        </mxCell>
        <mxCell id="nrf_K-8Qscz_3O5aYUuR-4" value="&lt;b&gt;Performer&lt;/b&gt;" style="rounded=1;whiteSpace=wrap;html=1;fillColor=#b1ddf0;strokeColor=#10739e;" vertex="1" parent="1">
          <mxGeometry x="530" y="110" width="140" height="120" as="geometry" />
        </mxCell>
      </root>
    </mxGraphModel>
  </diagram>
</mxfile>
